<?xml version="1.0" encoding="UTF-8" standalone="no"?>
<!-- Created with Inkscape (http://www.inkscape.org/) -->

<svg
   width="209.32825mm"
   height="214.69687mm"
   viewBox="0 0 209.32825 214.69687"
   version="1.1"
   id="svg1"
   xml:space="preserve"
   xmlns="http://www.w3.org/2000/svg"
   xmlns:svg="http://www.w3.org/2000/svg"><defs
     id="defs1"><rect
       x="928.49042"
       y="257.77444"
       width="651.1236"
       height="604.43921"
       id="rect136" /><style
       type="text/css"
       id="style1">*{stroke-linecap:butt;stroke-linejoin:round;}</style></defs><g
     id="layer1"
     transform="translate(-16.98042,-41.890511)"><path
       id="path118"
       style="display:inline;fill:#004270;fill-opacity:1"
       d="m 142.65404,54.299756 c -11.38591,0.194515 -22.19072,2.398439 -32.87828,6.449057 -8.41227,3.147589 -16.162719,8.381983 -21.65624,15.546874 -3.046178,4.023233 -5.3347,8.885988 -5.295935,14.021354 -0.0701,2.03226 0.03397,4.103888 0.800567,6.013078 1.384905,4.395091 4.010965,8.346341 7.416886,11.437031 7.169173,6.87544 14.648372,13.41951 21.818342,20.2934 3.88298,4.16792 7.43833,8.7444 9.84929,13.93358 0.48073,1.08123 0.7166,1.54332 0.94327,2.65132 -10.19336,-0.045 -20.22811,0.50408 -30.421471,0.45807 -0.633873,0.35339 -0.558661,1.00127 -0.53125,1.62929 v 11.07774 H 73.648438 v -12.16993 c -0.354122,-0.63266 -1.002003,-0.55613 -1.629297,-0.52929 h -7.366797 c -0.632664,0.35412 -0.556132,1.002 -0.529297,1.62929 v 11.06993 H 53.275391 c -0.632664,0.35412 0.172855,1.08611 0.19969,1.7134 l -0.02804,10.43043 -15.251731,0.028 c -0.632663,0.35412 -0.556131,1.002 -0.529296,1.6293 v 12.39414 H 26.023438 c -0.632664,0.35412 -0.556132,1.002 -0.529297,1.6293 v 15.59922 c -2.624171,0.44252 -5.300805,0.11659 -7.947266,0.23242 -0.626515,0.35778 -0.543523,1.0056 -0.519531,1.62929 v 25.03672 c 0.367885,0.83097 1.264808,1.2879 1.863403,1.95361 4.101204,3.63311 8.674337,6.69132 13.292493,9.62159 15.554636,9.64574 33.58805,14.91999 51.773844,16.34751 2.602889,0.29747 5.219192,0.38102 7.837444,0.33412 8.896242,0.0311 17.843082,-0.29473 26.591632,-2.03265 11.44144,-2.22888 22.57066,-6.14916 32.76092,-11.82828 14.00792,-7.79088 26.49946,-18.64139 35.23696,-32.15441 5.3926,-8.28861 9.20872,-17.68154 10.55842,-27.50442 0.55602,-5.29973 0.65975,-10.6549 0.29727,-15.97167 -0.97021,-9.83478 -4.1801,-19.42768 -9.27113,-27.89532 -3.28392,-5.47059 -7.14903,-10.59425 -11.45593,-15.29941 -6.087,-6.3015 -12.83144,-11.92753 -19.6726,-17.38377 -5.86328,-4.63786 -11.95335,-9.006167 -17.52952,-13.995491 -2.79406,-2.530513 -5.31782,-5.771352 -5.77158,-9.624999 -0.43804,-3.529352 2.1162,-6.509621 3.94262,-9.243893 2.76465,-4.231368 5.15158,-9.643983 9.43358,-11.621443 3.39716,-0.604675 6.19104,0.0799 7.81582,2.353049 0.93533,1.607043 2.7285,5.622048 4.59374,5.618125 2.94895,-0.149663 4.93483,-7.722185 8.36556,-5.604853 3.43073,2.117332 6.0694,18.60507 11.24859,18.298255 2.56623,-0.152024 3.99977,-10.634561 6.77379,-9.704827 2.14157,0.717764 2.87476,4.217841 5.3037,5.476995 2.98105,1.545367 3.38444,-1.51663 4.80263,-0.06727 2.46637,2.520588 3.38998,15.57587 7.88224,15.37841 2.16342,-0.09509 4.42744,-6.458933 7.26689,-9.776551 2.21035,-2.582573 7.52627,-17.290586 9.35884,-17.232461 3.40465,0.107987 4.91214,0.09156 5.73992,-0.662286 1.0863,-0.989293 -1.67891,-6.956847 -4.48518,-9.008109 -3.32189,-2.428154 -11.39935,13.760519 -12.62824,13.536367 -2.35317,-0.429222 -1.80515,-4.463937 -5.88253,-6.877474 -2.28917,-1.355035 -2.91759,0.461889 -4.64484,0.33166 -1.74341,-0.131445 -4.38944,-21.190619 -8.8168,-21.987318 -4.10626,-0.738917 -9.90408,25.983745 -11.79494,25.862002 -3.15261,-0.20298 -4.26886,-15.348221 -8.8466,-17.078291 -4.41181,-1.667361 -4.55232,3.645675 -6.31526,3.953147 -2.18931,-1.160048 -1.73461,-2.320961 -4.90144,-2.914575 -5.23215,0.238042 -4.65778,1.937639 -11.48871,2.61153 z" /><path
       style="display:inline;fill:#11c4ed;fill-opacity:1;stroke-width:0.264583"
       d="m 146.46899,59.592905 c 3.77874,-0.367829 8.47265,1.70637 9.0247,2.442431 0.55204,0.736057 1.1961,2.392193 1.74814,3.312265 0.55204,0.920076 1.01208,2.116172 1.93216,2.208179 0.92007,0.09201 1.74814,-0.920073 2.30018,-1.656133 0.55205,-0.736061 3.02079,-3.814779 4.41636,-4.253709 2.04497,-0.643179 3.31131,0.03253 4.24812,1.602236 0.82348,1.379797 3.20448,8.07991 3.75652,9.644037 0.55205,1.564127 1.65614,4.140335 2.57621,5.152416 0.92008,1.012082 2.11617,1.564127 2.85223,1.104091 0.73606,-0.460037 1.65614,-2.300187 2.02417,-3.404275 0.36803,-1.10409 0.92007,-3.128253 1.2881,-3.772305 0.36803,-0.644054 0.64405,-2.024163 1.56413,-2.300187 0.92007,-0.276021 1.65613,0.552046 2.4842,1.288106 0.82807,0.736057 1.74814,2.668214 3.31227,3.772305 1.56412,1.104087 2.4842,1.656132 3.49628,1.380111 1.01208,-0.276024 1.2881,-1.564126 2.11617,-1.748142 0.82807,-0.184015 1.2881,1.196096 2.02416,3.128253 0.73606,1.932156 1.54738,4.908923 2.11618,6.624535 0.55695,1.67988 0.67162,2.072673 1.00649,2.982348 0.39827,1.081874 0.71469,1.444055 1.29226,2.194887 0.29132,0.378715 2.43029,1.094577 3.0474,0.115052 0.61451,-0.975418 1.09377,-1.973992 2.17709,-4.123113 0.61186,-1.213832 1.55784,-2.929147 2.3566,-3.885478 0.82515,-0.98793 2.14684,-3.266381 3.30481,-5.225803 0.68525,-1.159522 1.84587,-3.924797 2.25835,-4.853057 0.44095,-0.992312 1.70579,-3.703253 2.36525,-4.750801 0.56225,-0.893125 2.21918,-3.527676 3.18165,-3.062229 1.76582,0.853947 2.15928,1.174409 3.08755,1.029504 0.76504,-0.119425 1.27387,-0.867344 0.0285,-2.319051 -0.76718,-0.894286 -2.5381,-3.023542 -3.36616,-3.023542 -0.82807,0 -1.65008,0.604763 -2.42366,1.522453 -0.78107,0.926591 -1.61447,2.453693 -2.24428,3.373766 -0.6992,1.02144 -1.36183,2.219919 -2.26766,3.571544 -1.15107,1.71756 -1.81984,2.98591 -2.5559,4.182006 -0.73606,1.196097 -1.73939,2.317179 -2.30124,2.312892 -0.85785,-0.0065 -1.78482,-1.778756 -2.60268,-3.056655 -0.55451,-0.866424 -2.08093,-3.584624 -3.24306,-4.266308 -1.8864,-1.106531 -2.12638,-0.524138 -3.37685,-0.0051 -1.27467,0.529079 -1.80762,1.477701 -2.26766,0.465619 -0.46003,-1.012081 -2.2754,-7.255859 -2.55484,-8.594803 -0.32992,-1.580868 -2.63058,-10.559007 -3.91868,-11.755103 -1.28811,-1.196097 -2.04876,0.104951 -2.76023,1.012081 -0.84481,1.077141 -3.67672,11.777983 -3.86431,12.421002 -0.89966,3.08377 -4.70913,11.122217 -6.36526,10.938202 -1.65613,-0.184015 -3.40889,-5.964218 -4.07528,-7.848058 -0.55992,-1.582865 -3.66355,-9.612467 -5.12546,-9.909855 -1.17209,-0.238433 -2.03437,0.243491 -2.95444,1.531597 -0.92008,1.288102 -2.32809,2.365243 -2.97214,2.365243 -0.64405,0 -2.6459,-2.641267 -3.934,-3.285319 -1.28811,-0.644051 -1.5316,-0.416344 -2.91171,0.227707 -1.38011,0.644052 -6.27617,1.967775 -9.17841,2.276323 -3.78989,0.402915 0.88917,2.104976 0.88917,2.104976 z"
       id="path115" /><path
       style="display:inline;fill:#11c4ed;fill-opacity:1"
       d="m 74.772417,255.14351 c 0.236902,-0.48298 6.779172,-6.8039 6.036895,-6.62843 4.26592,-3.17651 6.938566,-7.38091 9.390948,-9.40154 2.44325,-3.38118 5.101833,-5.49005 7.407079,-9.39967 1.845992,-2.02507 4.241631,-4.6935 6.142741,-7.89929 0.98506,-0.79753 3.24916,-4.6894 5.18971,-6.80787 1.34354,-2.62186 3.48396,-4.66595 5.13961,-7.32449 1.55435,-2.09435 4.85708,-5.78632 7.40859,-8.69706 4.33077,-3.46613 5.57008,-5.55798 9.6701,-8.27687 1.52581,-1.63849 4.91899,-4.13926 6.88657,-5.53808 0.67843,-1.05317 5.1921,-4.17688 4.7462,-4.15816 2.80901,-2.66791 5.14387,-4.91007 7.10812,-7.64469 0.5031,-0.89546 3.58392,-4.36472 3.61102,-6.00191 1.31123,-1.2424 1.27715,-3.65098 2.19105,-5.06116 0.65085,-3.31519 1.11493,-6.87285 0.83666,-8.97268 -0.0858,-2.24875 -0.43673,-5.38091 -1.23617,-7.71393 -0.3198,-1.52705 -1.02866,-2.14021 -1.15343,-3.7251 -1.30335,-1.23032 -1.98855,-4.87992 -3.62107,-5.93999 -0.93308,-2.84863 -6.45948,-9.0309 -6.66676,-8.95184 -2.11939,-3.26328 -9.65876,-8.91058 -9.89277,-9.83535 -4.62183,-3.4628 -9.63271,-7.81232 -14.28109,-11.92341 0.72449,0.21605 -4.83377,-4.6346 -5.88138,-6.23817 -1.75365,-2.164383 -3.44927,-5.273392 -4.4437,-7.570989 -1.03648,-3.356977 -1.74529,-7.537778 -0.74849,-11.07891 0.51929,-2.184169 1.15786,-3.043481 1.95367,-5.027935 2.02694,-2.82542 6.27081,-6.319685 8.86416,-8.620664 2.79899,-1.381428 6.73456,-3.577365 10.00765,-4.882954 1.88721,-0.561642 3.45909,-2.249264 5.60211,-2.634005 5.79553,-1.42232 6.17216,-1.565779 11.00302,-2.450549 7.47948,2.250102 0.11106,2.592959 -3.91197,4.019374 -3.15739,0.821992 -6.79701,2.589397 -8.06295,3.14523 -4.45379,2.023961 -9.0749,5.180502 -11.31715,9.297455 -1.37402,1.576872 -2.18015,3.819639 -2.32031,6.145742 -0.8619,3.896323 0.55442,8.30814 3.2361,11.59622 2.54041,4.229189 6.64381,7.9851 10.57831,11.097785 2.53289,2.65762 5.35545,4.27179 7.95013,6.7922 3.75037,2.79839 6.86884,5.18694 10.30821,8.47809 5.1118,3.85556 9.52375,9.06476 13.80817,13.84311 1.59547,2.99456 4.00693,5.3063 5.03948,8.62516 1.70125,2.70036 2.55069,5.10834 3.38307,8.31109 0.61245,2.44038 1.02416,3.75183 1.30555,6.62481 0.28812,5.64597 0.13645,10.97088 -1.13659,15.87042 -1.42017,4.04357 -2.94945,8.24863 -5.5271,11.75007 -1.05104,2.69914 -3.33099,4.55546 -4.93039,7.19824 -3.7016,4.2202 -8.26697,8.20554 -11.93985,12.42891 -2.82275,2.23073 -5.62082,5.90337 -8.16034,8.65006 -1.65997,2.22525 -3.056,4.56767 -4.96922,6.63724 -1.25123,2.45504 -2.70894,4.18022 -3.66058,6.23395 -1.02182,1.7921 -2.50412,3.32236 -3.02006,5.33524 -1.60694,1.92136 -3.32497,4.93637 -4.47299,7.01667 -1.27818,1.2959 -2.53262,3.62042 -3.65956,5.08568 -2.22184,2.80334 -4.70349,6.53056 -7.67404,9.92648 -3.71352,3.21859 -3.86305,4.89562 -17.791986,5.74033 -3.289035,-0.0105 -6.739548,-0.11367 -10.02867,-0.22712 -4.625367,-0.15955 -9.495548,-0.76471 -14.296307,-1.21674 z"
       id="path126" /><path
       style="display:inline;fill:none;fill-opacity:1;stroke:#0078b5;stroke-width:0.665;stroke-linecap:round;stroke-dasharray:none;stroke-opacity:1"
       d="m 144.82223,58.588253 c 4.15425,-0.510269 6.23123,-1.629605 7.45086,-1.572821 1.53225,0.07134 3.95282,1.767083 4.58435,2.448568 0.5325,0.574616 2.73248,2.212009 3.96861,2.08189 1.23612,-0.130117 3.05777,-1.821654 3.64331,-2.212009 0.58553,-0.390353 2.31258,-2.099008 3.31801,-1.821654 1.56998,0.43309 2.83474,3.097859 3.17605,3.674203 0.57832,0.976563 2.22385,5.564187 2.61421,6.540074 0.39035,0.975886 2.56231,7.474131 4.16378,7.67697 1.86501,0.236219 3.63793,-4.059546 4.09872,-5.204725 0.80439,-1.999131 2.56425,-5.994722 3.38307,-7.221559 0.76887,-1.152009 1.89342,-3.022379 3.64331,-2.602364 1.08519,0.260471 3.60457,3.198752 4.42402,4.293901 0.97656,1.305126 3.44813,6.505906 4.42401,7.80709 0.97589,1.301181 4.13866,5.764568 5.13967,6.375789 1.12901,0.689379 1.99258,0.993208 3.25296,0.780708 1.71456,-0.289073 2.30074,-0.949616 3.57825,-2.212009 1.63743,-1.618059 2.5373,-2.732482 3.77342,-5.464961 1.23613,-2.732481 3.78969,-7.205294 4.35896,-8.002267 0.62021,-0.868294 1.3527,-2.243989 2.01683,-2.407187 1.26667,-0.31126 2.79754,1.301181 3.38308,1.886715"
       id="path116" /><path
       style="display:inline;fill:#0078b5;fill-opacity:1"
       d="m 73.618071,255.00254 c -8.732539,-1.12471 -16.325947,-3.64039 -24.102133,-6.67845 -0.232376,-0.52316 5.149782,-4.88929 3.122026,-3.5233 1.623509,-1.34424 8.073031,-7.29416 2.397245,-2.16863 3.72855,-3.58969 7.480039,-7.10399 11.008986,-10.83013 1.899242,-2.10652 5.473737,-6.30283 5.000816,-5.57403 -0.52892,1.15029 4.326007,-5.36013 1.190037,-1.32292 3.358897,-3.56031 2.622849,-3.71275 5.676223,-6.34701 1.766964,-3.18907 3.195308,-3.71811 5.185572,-6.67163 -0.445544,1.13354 2.871101,-3.70218 2.17778,-2.12301 1.909645,-2.59539 3.672394,-4.6305 4.602588,-5.20868 3.918728,-5.12862 9.113339,-9.30376 11.593949,-11.52561 2.50788,-2.01571 3.30216,-2.76912 5.84448,-4.61861 1.13935,-1.05217 3.80205,-2.8844 5.47155,-4.01015 0.90636,-0.91946 5.15492,-3.25201 4.87319,-3.33382 2.51644,-1.59276 5.25622,-3.07336 7.00666,-4.68773 2.84294,-1.41342 5.61018,-3.38353 8.57753,-6.05569 1.50551,-0.9957 5.50242,-5.04448 6.22391,-8.13804 0.54996,-1.10842 0.80675,-2.92316 1.27495,-3.97365 0.57442,-4.42567 0.11603,-9.38695 -0.47278,-12.90897 -0.78281,-1.2758 -0.85574,-3.23496 -1.68047,-4.2269 -1.1954,-3.10839 -2.31729,-4.97815 -3.78316,-7.19097 -4.78437,-6.46088 -10.80186,-11.87854 -16.53646,-17.45868 1.9916,1.66717 -7.46086,-6.42538 -9.88489,-8.41303 -2.59792,-2.04788 -0.42604,-1.08168 -3.98805,-4.15468 5.17567,6.09103 -3.535,-4.010214 -4.515651,-5.697957 -1.078437,-1.881816 -2.799698,-4.566024 -2.686691,-6.912716 -1.069743,-1.494336 -0.749074,-7.36791 0.209788,-9.482034 0.737576,-2.32548 2.516233,-5.134993 4.748904,-7.672916 2.73879,-3.078648 6.42423,-5.599686 9.41847,-7.390151 1.50913,-0.858269 3.53916,-1.781871 4.57054,-2.444563 2.45694,-1.05433 5.4025,-2.234708 7.88175,-2.84663 4.23218,-1.552461 11.07007,-3.103615 24.67987,-3.336637 -11.81319,2.377159 -34.7932,9.632747 -38.76783,21.896654 -2.81286,11.825447 6.98582,21.34013 15.02388,28.38367 13.12591,11.17733 28.80781,22.66283 32.44684,40.58979 2.53422,12.59771 -4.7342,24.72829 -14.27938,32.40466 -11.55699,9.43246 -23.55176,18.78853 -31.73965,31.49972 -10.65719,14.74762 -21.381249,30.44028 -35.946778,41.57212 l -0.665385,0.70983 z"
       id="path129" /><rect
       style="fill:#00b3e1;fill-opacity:1;stroke-width:0.262378"
       id="rect98"
       width="20.62373"
       height="13.627571"
       x="16.980421"
       y="214.49979" /><rect
       style="fill:#0080bc;fill-opacity:1;stroke-width:0.228291"
       id="rect98-1"
       width="15.353944"
       height="13.857584"
       x="37.604153"
       y="200.6422" /><rect
       style="fill:#00aedd;fill-opacity:1;stroke-width:0.254156"
       id="rect98-1-2"
       width="15.353948"
       height="17.175589"
       x="37.604149"
       y="183.4666" /><rect
       style="fill:#007eb8;fill-opacity:1;stroke-width:0.29632"
       id="rect98-1-2-7"
       width="20.870884"
       height="17.175589"
       x="52.958096"
       y="183.4666" /><rect
       style="fill:#0dc3eb;fill-opacity:1;stroke-width:0.227754"
       id="rect98-1-2-7-2"
       width="15.353945"
       height="13.792517"
       x="37.604153"
       y="169.67409" /><rect
       style="fill:#00a9d9;fill-opacity:1;stroke-width:0.265621"
       id="rect98-1-2-7-2-3"
       width="20.883959"
       height="13.792517"
       x="52.958096"
       y="169.67409" /><rect
       style="fill:#14caf0;fill-opacity:1;stroke-width:0.2488"
       id="rect98-1-2-7-2-3-7"
       width="20.883959"
       height="12.100981"
       x="52.958096"
       y="157.57312" /><rect
       style="fill:#14caf0;fill-opacity:1;stroke-width:0.186482"
       id="rect98-1-2-7-2-3-7-6"
       width="9.8239231"
       height="14.451817"
       x="64.018135"
       y="144.69144" /><rect
       style="fill:#00b1df;fill-opacity:1;stroke-width:0.236394"
       id="rect98-1-2-7-2-3-7-9"
       width="18.853258"
       height="12.100981"
       x="73.842056"
       y="157.57312" /><rect
       style="fill:#0075ad;fill-opacity:1;stroke-width:0.236568"
       id="rect98-1-2-7-2-3-7-9-6"
       width="18.880999"
       height="12.100981"
       x="92.695312"
       y="157.57312" /><rect
       style="fill:#00b3e0;fill-opacity:1;stroke-width:0.24408"
       id="rect98-1-2-7-2-3-7-9-6-6"
       width="18.881002"
       height="12.881703"
       x="92.695312"
       y="144.69144" /><rect
       style="fill:#007db8;fill-opacity:1;stroke-width:0.195664"
       id="rect98-1-2-7-2-3-7-9-6-6-0"
       width="12.133474"
       height="12.881703"
       x="111.57632"
       y="144.69144" /><rect
       style="fill:#007db7;fill-opacity:1;stroke-width:0.252377"
       id="rect98-1-2-7-2-3-4"
       width="18.853258"
       height="13.792517"
       x="73.842056"
       y="169.67409" /><rect
       style="fill:#12c9ef;fill-opacity:1;stroke-width:0.264583"
       id="rect98-5"
       width="20.62373"
       height="13.857584"
       x="16.980421"
       y="200.6422" /><rect
       style="fill:#12c9ef;fill-opacity:1;stroke-width:0.227159"
       id="rect98-5-1"
       width="12.166049"
       height="17.315786"
       x="25.438103"
       y="183.4666" /><text
       xml:space="preserve"
       transform="matrix(0.248627,-0.09049284,0.09049284,0.248627,-127.35851,240.59888)"
       id="text136"
       style="font-style:normal;font-variant:normal;font-weight:normal;font-stretch:normal;font-size:100px;font-family:'Freestyle Script';-inkscape-font-specification:'Freestyle Script, Normal';font-variant-ligatures:normal;font-variant-caps:normal;font-variant-numeric:normal;font-variant-east-asian:normal;text-align:start;writing-mode:lr-tb;direction:ltr;white-space:pre;shape-inside:url(#rect136);display:inline;fill:#e5e5e5;fill-opacity:1;stroke:none;stroke-width:0.245669;stroke-linecap:round;stroke-linejoin:round;stroke-dasharray:none;stroke-opacity:1"><tspan
         x="928.49023"
         y="338.53711"
         id="tspan1">gpras</tspan></text></g></svg>
